<svg xmlns="http://www.w3.org/2000/svg" xmlns:xlink="http://www.w3.org/1999/xlink" width="500" zoomAndPan="magnify" viewBox="0 0 375 374.999991" height="500" preserveAspectRatio="xMidYMid meet" version="1.0"><defs><g/><clipPath id="903a557b18"><path d="M 56.449219 139.941406 L 318.199219 139.941406 L 318.199219 193.941406 L 56.449219 193.941406 Z M 56.449219 139.941406 " clip-rule="nonzero"/></clipPath><clipPath id="b189ff599f"><path d="M 0.800781 22 L 13.761719 22 L 13.761719 42.6875 L 0.800781 42.6875 Z M 0.800781 22 " clip-rule="nonzero"/></clipPath><clipPath id="55322c32a0"><path d="M 4 1 L 262.199219 1 L 262.199219 44 L 4 44 Z M 4 1 " clip-rule="nonzero"/></clipPath><clipPath id="566f27774f"><path d="M 94 44.332031 L 173.601562 44.332031 L 173.601562 54.941406 L 94 54.941406 Z M 94 44.332031 " clip-rule="nonzero"/></clipPath><clipPath id="abe597a771"><rect x="0" width="263" y="0" height="55"/></clipPath><clipPath id="e7f516a346"><rect x="0" width="188" y="0" height="11"/></clipPath><clipPath id="e35ca58c4c"><path d="M 71.722656 227.734375 L 88.972656 227.734375 L 88.972656 229.160156 L 71.722656 229.160156 Z M 71.722656 227.734375 " clip-rule="nonzero"/></clipPath><clipPath id="01e3a3352c"><path d="M 286 227.734375 L 303.246094 227.734375 L 303.246094 229.160156 L 286 229.160156 Z M 286 227.734375 " clip-rule="nonzero"/></clipPath></defs><g clip-path="url(#903a557b18)"><g transform="matrix(1, 0, 0, 1, 56, 139)"><g clip-path="url(#abe597a771)"><path fill="#e52024" d="M 237.660156 32.980469 L 242.9375 38.769531 C 243.5625 39.460938 244.417969 39.902344 245.339844 40.015625 L 252.785156 40.941406 C 252.957031 40.960938 253.082031 41.113281 253.074219 41.285156 C 253.0625 41.460938 252.917969 41.597656 252.742188 41.597656 L 243.003906 41.597656 C 242.894531 41.597656 242.792969 41.542969 242.730469 41.453125 L 237.148438 33.390625 C 237.050781 33.246094 237.078125 33.050781 237.214844 32.941406 C 237.347656 32.835938 237.546875 32.851562 237.660156 32.980469 " fill-opacity="1" fill-rule="nonzero"/><g clip-path="url(#b189ff599f)"><path fill="#e52024" d="M 0.476562 42.386719 L 8.089844 26.492188 C 8.132812 26.398438 8.136719 26.292969 8.089844 26.199219 C 8.046875 26.101562 7.964844 26.027344 7.859375 25.992188 L 7.160156 25.742188 C 7.074219 25.714844 7.03125 25.628906 7.0625 25.550781 L 8.464844 22.160156 C 8.492188 22.097656 8.566406 22.054688 8.640625 22.066406 L 13.371094 22.6875 C 13.425781 22.691406 13.472656 22.722656 13.496094 22.769531 C 13.519531 22.8125 13.519531 22.867188 13.488281 22.910156 L 0.769531 42.523438 C 0.738281 42.570312 0.683594 42.597656 0.628906 42.597656 C 0.601562 42.597656 0.574219 42.589844 0.550781 42.582031 C 0.476562 42.542969 0.441406 42.460938 0.476562 42.386719 " fill-opacity="1" fill-rule="nonzero"/></g><g clip-path="url(#55322c32a0)"><path fill="#000000" d="M 4.492188 17 L 4.71875 17.800781 C 5.347656 20.015625 7.597656 21.347656 9.839844 20.828125 C 10.640625 20.644531 11.359375 20.480469 11.757812 20.398438 C 12.414062 20.289062 13.132812 20.183594 13.890625 20.066406 C 14.652344 19.953125 15.457031 19.808594 16.324219 19.722656 C 17.191406 19.625 18.105469 19.519531 19.058594 19.40625 C 20.019531 19.300781 21.039062 19.234375 22.089844 19.136719 C 22.617188 19.089844 23.152344 19.046875 23.703125 19 C 24.253906 18.964844 24.816406 18.929688 25.390625 18.894531 C 26.539062 18.832031 27.722656 18.742188 28.953125 18.695312 C 33.871094 18.453125 39.457031 18.375 45.558594 18.398438 C 51.65625 18.441406 58.277344 18.640625 65.28125 18.960938 C 72.285156 19.28125 79.671875 19.71875 87.3125 20.253906 C 91.132812 20.519531 95.019531 20.8125 98.945312 21.121094 C 102.875 21.441406 106.851562 21.796875 110.863281 22.160156 C 118.878906 22.886719 127.015625 23.6875 135.160156 24.511719 C 139.226562 24.925781 143.296875 25.335938 147.355469 25.75 C 149.390625 25.949219 151.414062 26.148438 153.433594 26.347656 C 154.449219 26.441406 155.457031 26.535156 156.46875 26.628906 C 157.46875 26.722656 158.5 26.792969 159.503906 26.867188 C 163.539062 27.191406 167.570312 27.367188 171.554688 27.367188 C 175.539062 27.394531 179.480469 27.222656 183.328125 26.910156 C 187.171875 26.605469 190.921875 26.203125 194.585938 25.914062 C 198.246094 25.621094 201.839844 25.433594 205.320312 25.34375 C 206.199219 25.328125 207.070312 25.3125 207.9375 25.300781 C 208.371094 25.296875 208.800781 25.289062 209.234375 25.285156 L 209.558594 25.28125 L 209.859375 25.285156 L 210.488281 25.296875 C 210.90625 25.308594 211.320312 25.308594 211.730469 25.328125 C 212.148438 25.359375 212.558594 25.390625 212.96875 25.414062 C 213.792969 25.460938 214.601562 25.578125 215.410156 25.667969 C 218.632812 26.082031 221.722656 26.75 224.65625 27.53125 C 230.515625 29.105469 235.746094 31.101562 240.304688 33.019531 C 244.851562 34.984375 248.730469 36.902344 251.882812 38.546875 C 255.039062 40.1875 257.464844 41.574219 259.101562 42.546875 C 259.925781 43.035156 260.542969 43.410156 260.960938 43.664062 C 261.078125 43.738281 261.210938 43.773438 261.339844 43.773438 C 261.585938 43.773438 261.824219 43.652344 261.957031 43.429688 C 262.546875 42.464844 262.222656 41.203125 261.242188 40.644531 C 261 40.503906 260.734375 40.351562 260.441406 40.1875 C 258.753906 39.238281 256.269531 37.875 253.050781 36.253906 C 249.828125 34.632812 245.871094 32.75 241.226562 30.824219 C 236.589844 28.894531 231.261719 26.886719 225.242188 25.296875 C 222.230469 24.507812 219.050781 23.832031 215.691406 23.417969 C 214.851562 23.328125 214.007812 23.210938 213.144531 23.164062 C 212.714844 23.136719 212.28125 23.105469 211.847656 23.070312 C 211.414062 23.054688 210.976562 23.046875 210.535156 23.035156 L 209.875 23.023438 L 209.535156 23.015625 L 209.210938 23.019531 C 208.78125 23.023438 208.351562 23.027344 207.917969 23.03125 C 207.050781 23.042969 206.175781 23.054688 205.296875 23.066406 C 201.742188 23.148438 198.113281 23.328125 194.410156 23.613281 C 190.710938 23.890625 186.953125 24.285156 183.148438 24.574219 C 179.351562 24.871094 175.492188 25.03125 171.578125 24.988281 C 167.667969 24.945312 163.707031 24.726562 159.714844 24.363281 C 158.710938 24.273438 157.726562 24.199219 156.71875 24.089844 C 155.714844 23.984375 154.707031 23.882812 153.703125 23.777344 C 151.691406 23.554688 149.667969 23.332031 147.644531 23.113281 C 143.597656 22.652344 139.53125 22.195312 135.464844 21.738281 C 119.199219 19.894531 102.902344 18.175781 87.597656 16.875 C 84.390625 16.597656 81.230469 16.339844 78.117188 16.109375 C 77.851562 16.085938 77.582031 16.066406 77.3125 16.046875 C 77.6875 15.886719 78.09375 15.71875 78.535156 15.542969 C 82.855469 13.8125 90.503906 11.175781 102.410156 8.417969 C 114.976562 5.503906 129.289062 6.199219 139.472656 7.378906 C 146.5625 8.203125 153.542969 9.816406 160.257812 12.242188 C 160.289062 12.253906 160.320312 12.265625 160.351562 12.277344 C 168.445312 15.203125 174.976562 18.246094 179.46875 20.5 C 181.710938 21.628906 183.449219 22.566406 184.621094 23.21875 C 185.003906 23.429688 185.359375 23.644531 185.640625 23.816406 C 185.644531 23.816406 185.644531 23.820312 185.648438 23.820312 C 185.652344 23.824219 185.660156 23.828125 185.667969 23.832031 C 185.953125 23.992188 186.359375 24.042969 186.414062 24.046875 C 186.417969 24.046875 186.421875 24.046875 186.421875 24.046875 C 187.03125 24.019531 188.199219 23.917969 189.027344 23.84375 C 189.066406 23.839844 189.105469 23.835938 189.140625 23.832031 C 189.148438 23.832031 189.160156 23.832031 189.171875 23.832031 C 189.78125 23.742188 189.554688 23.511719 189.378906 23.390625 C 189.367188 23.382812 189.359375 23.375 189.347656 23.371094 C 189.332031 23.363281 189.3125 23.351562 189.296875 23.339844 C 189.28125 23.332031 189.265625 23.320312 189.25 23.3125 C 189.246094 23.308594 189.246094 23.308594 189.246094 23.308594 C 188.433594 22.808594 187.195312 22.046875 187.125 22.003906 C 186.816406 21.824219 186.363281 21.558594 185.769531 21.210938 C 184.582031 20.53125 182.828125 19.550781 180.570312 18.375 C 176.042969 16.027344 169.480469 12.851562 161.296875 9.761719 C 157.207031 8.214844 152.710938 6.703125 147.871094 5.378906 C 143.035156 4.050781 137.855469 2.898438 132.417969 2.113281 C 126.984375 1.363281 121.289062 0.992188 115.507812 1.234375 C 114.78125 1.257812 114.058594 1.332031 113.335938 1.375 L 112.242188 1.457031 L 111.695312 1.496094 L 111.160156 1.546875 C 109.730469 1.691406 108.300781 1.835938 106.867188 1.976562 C 104 2.261719 101.113281 2.589844 98.230469 2.894531 C 92.472656 3.546875 86.714844 4.222656 81.058594 4.933594 C 78.230469 5.285156 75.425781 5.640625 72.652344 6.007812 C 69.882812 6.363281 67.144531 6.730469 64.453125 7.097656 C 61.765625 7.46875 59.117188 7.835938 56.53125 8.195312 C 53.941406 8.546875 51.414062 8.9375 48.949219 9.304688 C 48.238281 9.410156 47.535156 9.519531 46.832031 9.625 C 46.320312 9.707031 45.8125 9.78125 45.3125 9.859375 L 78.046875 15.621094 C 78.046875 15.621094 78.015625 15.617188 77.945312 15.613281 C 77.925781 15.613281 77.902344 15.609375 77.878906 15.609375 C 76.367188 15.488281 64.875 14.632812 50.820312 14.3125 C 35.15625 13.953125 16.296875 14.257812 4.507812 17 C 4.503906 17 4.496094 17 4.492188 17 " fill-opacity="1" fill-rule="nonzero"/></g><path fill="#000000" d="M 157.800781 20.65625 L 157.800781 19.757812 C 157.800781 19.164062 158.125 18.621094 158.644531 18.335938 L 160.417969 17.367188 C 161.066406 17.015625 161.832031 16.960938 162.519531 17.226562 L 170.007812 20.070312 C 170.425781 20.230469 170.710938 20.640625 170.710938 21.089844 L 170.710938 22.484375 C 170.710938 22.605469 170.664062 22.722656 170.585938 22.8125 L 169.621094 23.898438 C 169.527344 24.003906 169.394531 24.0625 169.25 24.0625 L 165.160156 24.0625 C 164.984375 24.0625 164.824219 23.972656 164.734375 23.824219 C 164.644531 23.675781 164.640625 23.488281 164.722656 23.335938 L 164.984375 22.847656 L 158.652344 21.679688 C 158.160156 21.589844 157.800781 21.160156 157.800781 20.65625 " fill-opacity="1" fill-rule="nonzero"/><path fill="#000000" d="M 72.675781 22.597656 L 77.921875 20.808594 C 78.070312 20.757812 78.242188 20.804688 78.328125 20.921875 C 78.410156 21.035156 78.386719 21.183594 78.265625 21.273438 L 75.453125 23.335938 C 75.21875 23.507812 75.15625 23.792969 75.300781 24.023438 L 88.222656 44.578125 L 94.539062 48.859375 C 94.675781 48.953125 94.703125 49.117188 94.597656 49.238281 C 94.535156 49.3125 94.433594 49.351562 94.332031 49.351562 C 94.269531 49.351562 94.207031 49.335938 94.148438 49.304688 L 87.230469 45.445312 C 87.183594 45.421875 87.148438 45.386719 87.125 45.347656 L 72.511719 22.988281 C 72.46875 22.917969 72.460938 22.835938 72.492188 22.761719 C 72.523438 22.6875 72.589844 22.628906 72.675781 22.597656 " fill-opacity="1" fill-rule="nonzero"/><g clip-path="url(#566f27774f)"><path fill="#000000" d="M 94.167969 44.464844 C 94.183594 44.390625 94.261719 44.335938 94.351562 44.347656 L 169.796875 52.128906 C 169.851562 52.136719 169.898438 52.164062 169.921875 52.207031 C 169.949219 52.25 169.945312 52.296875 169.914062 52.339844 L 169.113281 53.433594 L 173.210938 54.683594 C 173.289062 54.710938 173.332031 54.78125 173.3125 54.847656 C 173.292969 54.910156 173.226562 54.953125 173.152344 54.953125 C 173.144531 54.953125 173.136719 54.953125 173.128906 54.949219 L 94.308594 44.617188 C 94.21875 44.609375 94.15625 44.539062 94.167969 44.464844 " fill-opacity="1" fill-rule="nonzero"/></g><path fill="#000000" d="M 211.054688 32.214844 C 219.457031 32.214844 227.300781 36.734375 231.53125 44.007812 C 231.65625 44.222656 231.59375 44.488281 231.382812 44.625 C 231.300781 44.671875 231.214844 44.699219 231.132812 44.699219 C 230.988281 44.699219 230.847656 44.628906 230.757812 44.5 C 226.3125 38.128906 218.761719 34.171875 211.054688 34.171875 C 204.109375 34.171875 196.929688 37.539062 192.320312 42.957031 C 192.160156 43.148438 191.886719 43.175781 191.691406 43.023438 C 191.496094 42.871094 191.453125 42.605469 191.59375 42.398438 C 196.023438 36.019531 203.296875 32.214844 211.054688 32.214844 " fill-opacity="1" fill-rule="nonzero"/><path fill="#000000" d="M 40.921875 27.269531 C 49.324219 27.269531 57.171875 31.789062 61.398438 39.066406 C 61.523438 39.28125 61.460938 39.546875 61.25 39.679688 C 61.171875 39.730469 61.085938 39.753906 60.996094 39.753906 C 60.855469 39.753906 60.714844 39.683594 60.625 39.554688 C 56.179688 33.183594 48.628906 29.226562 40.921875 29.226562 C 33.976562 29.226562 26.800781 32.59375 22.1875 38.015625 C 22.027344 38.203125 21.757812 38.234375 21.558594 38.082031 C 21.363281 37.929688 21.320312 37.660156 21.460938 37.457031 C 25.890625 31.078125 33.167969 27.269531 40.921875 27.269531 " fill-opacity="1" fill-rule="nonzero"/><path fill="#000000" d="M 189.027344 23.84375 C 189.066406 23.84375 189.109375 23.839844 189.140625 23.832031 C 189.105469 23.835938 189.066406 23.839844 189.027344 23.84375 " fill-opacity="1" fill-rule="nonzero"/></g></g></g><g fill="#000000" fill-opacity="1"><g transform="translate(57.633135, 212.908184)"><g><path d="M 15.578125 0 C 16.972656 0 18.164062 -0.492188 19.15625 -1.484375 C 20.144531 -2.472656 20.640625 -3.664062 20.640625 -5.0625 L 18.109375 -5.0625 C 18.109375 -4.351562 17.859375 -3.753906 17.359375 -3.265625 C 16.867188 -2.773438 16.273438 -2.53125 15.578125 -2.53125 L 6.734375 -2.53125 C 6.023438 -2.53125 5.425781 -2.773438 4.9375 -3.265625 C 4.445312 -3.753906 4.203125 -4.351562 4.203125 -5.0625 L 4.203125 -10.875 C 4.203125 -11.5625 4.445312 -12.15625 4.9375 -12.65625 C 5.425781 -13.15625 6.023438 -13.40625 6.734375 -13.40625 L 15.578125 -13.40625 C 16.273438 -13.40625 16.867188 -13.15625 17.359375 -12.65625 C 17.859375 -12.15625 18.109375 -11.5625 18.109375 -10.875 L 20.640625 -10.875 C 20.640625 -12.257812 20.144531 -13.445312 19.15625 -14.4375 C 18.164062 -15.425781 16.972656 -15.921875 15.578125 -15.921875 L 6.734375 -15.921875 C 5.328125 -15.921875 4.128906 -15.425781 3.140625 -14.4375 C 2.160156 -13.445312 1.671875 -12.257812 1.671875 -10.875 L 1.671875 -5.0625 C 1.671875 -3.664062 2.160156 -2.472656 3.140625 -1.484375 C 4.128906 -0.492188 5.328125 0 6.734375 0 Z M 15.578125 0 "/></g></g></g><g fill="#000000" fill-opacity="1"><g transform="translate(87.532208, 212.908184)"><g><path d="M 21.1875 0 L 18.65625 0 L 18.65625 -4.484375 C 18.65625 -4.828125 18.53125 -5.125 18.28125 -5.375 C 18.039062 -5.625 17.742188 -5.75 17.390625 -5.75 L 4.75 -5.75 L 4.75 0 L 2.21875 0 L 2.21875 -15.921875 L 17.390625 -15.921875 C 18.429688 -15.921875 19.320312 -15.550781 20.0625 -14.8125 C 20.8125 -14.070312 21.1875 -13.179688 21.1875 -12.140625 L 21.1875 -9.546875 C 21.1875 -8.566406 20.863281 -7.722656 20.21875 -7.015625 C 20.863281 -6.296875 21.1875 -5.453125 21.1875 -4.484375 Z M 17.390625 -8.28125 C 17.742188 -8.28125 18.039062 -8.40625 18.28125 -8.65625 C 18.53125 -8.90625 18.65625 -9.203125 18.65625 -9.546875 L 18.65625 -12.140625 C 18.65625 -12.484375 18.53125 -12.78125 18.28125 -13.03125 C 18.039062 -13.28125 17.742188 -13.40625 17.390625 -13.40625 L 4.75 -13.40625 L 4.75 -8.28125 Z M 17.390625 -8.28125 "/></g></g></g><g fill="#000000" fill-opacity="1"><g transform="translate(117.986319, 212.908184)"><g><path d="M 15.578125 0 C 16.972656 0 18.164062 -0.492188 19.15625 -1.484375 C 20.144531 -2.472656 20.640625 -3.664062 20.640625 -5.0625 L 20.640625 -10.875 C 20.640625 -12.257812 20.144531 -13.445312 19.15625 -14.4375 C 18.164062 -15.425781 16.972656 -15.921875 15.578125 -15.921875 L 6.734375 -15.921875 C 5.328125 -15.921875 4.128906 -15.425781 3.140625 -14.4375 C 2.160156 -13.445312 1.671875 -12.257812 1.671875 -10.875 L 1.671875 -5.0625 C 1.671875 -3.664062 2.160156 -2.472656 3.140625 -1.484375 C 4.128906 -0.492188 5.328125 0 6.734375 0 Z M 15.578125 -2.53125 L 6.734375 -2.53125 C 6.023438 -2.53125 5.425781 -2.773438 4.9375 -3.265625 C 4.445312 -3.753906 4.203125 -4.351562 4.203125 -5.0625 L 4.203125 -10.875 C 4.203125 -11.5625 4.445312 -12.15625 4.9375 -12.65625 C 5.425781 -13.15625 6.023438 -13.40625 6.734375 -13.40625 L 15.578125 -13.40625 C 16.273438 -13.40625 16.867188 -13.15625 17.359375 -12.65625 C 17.859375 -12.15625 18.109375 -11.5625 18.109375 -10.875 L 18.109375 -5.0625 C 18.109375 -4.351562 17.859375 -3.753906 17.359375 -3.265625 C 16.867188 -2.773438 16.273438 -2.53125 15.578125 -2.53125 Z M 15.578125 -2.53125 "/></g></g></g><g fill="#000000" fill-opacity="1"><g transform="translate(147.885392, 212.908184)"><g><path d="M 21.1875 0 L 19.46875 0 L 4.75 -12 L 4.75 0 L 2.21875 0 L 2.21875 -15.921875 L 3.921875 -15.921875 L 18.65625 -3.921875 L 18.65625 -15.921875 L 21.1875 -15.921875 Z M 21.1875 0 "/></g></g></g><g fill="#000000" fill-opacity="1"><g transform="translate(178.894541, 212.908184)"><g><path d="M 15.578125 0 C 16.972656 0 18.164062 -0.492188 19.15625 -1.484375 C 20.144531 -2.472656 20.640625 -3.664062 20.640625 -5.0625 L 20.640625 -10.875 C 20.640625 -12.257812 20.144531 -13.445312 19.15625 -14.4375 C 18.164062 -15.425781 16.972656 -15.921875 15.578125 -15.921875 L 6.734375 -15.921875 C 5.328125 -15.921875 4.128906 -15.425781 3.140625 -14.4375 C 2.160156 -13.445312 1.671875 -12.257812 1.671875 -10.875 L 1.671875 -5.0625 C 1.671875 -3.664062 2.160156 -2.472656 3.140625 -1.484375 C 4.128906 -0.492188 5.328125 0 6.734375 0 Z M 15.578125 -2.53125 L 6.734375 -2.53125 C 6.023438 -2.53125 5.425781 -2.773438 4.9375 -3.265625 C 4.445312 -3.753906 4.203125 -4.351562 4.203125 -5.0625 L 4.203125 -10.875 C 4.203125 -11.5625 4.445312 -12.15625 4.9375 -12.65625 C 5.425781 -13.15625 6.023438 -13.40625 6.734375 -13.40625 L 15.578125 -13.40625 C 16.273438 -13.40625 16.867188 -13.15625 17.359375 -12.65625 C 17.859375 -12.15625 18.109375 -11.5625 18.109375 -10.875 L 18.109375 -5.0625 C 18.109375 -4.351562 17.859375 -3.753906 17.359375 -3.265625 C 16.867188 -2.773438 16.273438 -2.53125 15.578125 -2.53125 Z M 15.578125 -2.53125 "/></g></g></g><g fill="#000000" fill-opacity="1"><g transform="translate(208.793614, 212.908184)"><g><path d="M 23.21875 0 L 20.140625 0 L 17.8125 -3.453125 L 5.734375 -3.453125 L 3.390625 0 L 0.328125 0 L 11.09375 -15.921875 L 12.4375 -15.921875 Z M 16.109375 -5.984375 L 11.765625 -12.40625 L 7.421875 -5.984375 Z M 16.109375 -5.984375 "/></g></g></g><g fill="#000000" fill-opacity="1"><g transform="translate(239.935973, 212.908184)"><g><path d="M 15.578125 0 C 16.972656 0 18.164062 -0.492188 19.15625 -1.484375 C 20.144531 -2.472656 20.640625 -3.664062 20.640625 -5.0625 L 20.640625 -15.921875 L 18.109375 -15.921875 L 18.109375 -5.0625 C 18.109375 -4.351562 17.859375 -3.753906 17.359375 -3.265625 C 16.867188 -2.773438 16.273438 -2.53125 15.578125 -2.53125 L 6.734375 -2.53125 C 6.023438 -2.53125 5.425781 -2.773438 4.9375 -3.265625 C 4.445312 -3.753906 4.203125 -4.351562 4.203125 -5.0625 L 4.203125 -15.921875 L 1.671875 -15.921875 L 1.671875 -5.0625 C 1.671875 -3.664062 2.160156 -2.472656 3.140625 -1.484375 C 4.128906 -0.492188 5.328125 0 6.734375 0 Z M 15.578125 0 "/></g></g></g><g fill="#000000" fill-opacity="1"><g transform="translate(269.835057, 212.908184)"><g><path d="M 10.0625 0 L 7.53125 0 L 7.53125 -13.40625 L 0.328125 -13.40625 L 0.328125 -15.921875 L 17.28125 -15.921875 L 17.28125 -13.40625 L 10.0625 -13.40625 Z M 10.0625 0 "/></g></g></g><g fill="#000000" fill-opacity="1"><g transform="translate(295.049594, 212.908184)"><g><path d="M 15.578125 0 C 16.972656 0 18.164062 -0.492188 19.15625 -1.484375 C 20.144531 -2.472656 20.640625 -3.664062 20.640625 -5.0625 L 20.640625 -10.875 C 20.640625 -12.257812 20.144531 -13.445312 19.15625 -14.4375 C 18.164062 -15.425781 16.972656 -15.921875 15.578125 -15.921875 L 6.734375 -15.921875 C 5.328125 -15.921875 4.128906 -15.425781 3.140625 -14.4375 C 2.160156 -13.445312 1.671875 -12.257812 1.671875 -10.875 L 1.671875 -5.0625 C 1.671875 -3.664062 2.160156 -2.472656 3.140625 -1.484375 C 4.128906 -0.492188 5.328125 0 6.734375 0 Z M 15.578125 -2.53125 L 6.734375 -2.53125 C 6.023438 -2.53125 5.425781 -2.773438 4.9375 -3.265625 C 4.445312 -3.753906 4.203125 -4.351562 4.203125 -5.0625 L 4.203125 -10.875 C 4.203125 -11.5625 4.445312 -12.15625 4.9375 -12.65625 C 5.425781 -13.15625 6.023438 -13.40625 6.734375 -13.40625 L 15.578125 -13.40625 C 16.273438 -13.40625 16.867188 -13.15625 17.359375 -12.65625 C 17.859375 -12.15625 18.109375 -11.5625 18.109375 -10.875 L 18.109375 -5.0625 C 18.109375 -4.351562 17.859375 -3.753906 17.359375 -3.265625 C 16.867188 -2.773438 16.273438 -2.53125 15.578125 -2.53125 Z M 15.578125 -2.53125 "/></g></g></g><g transform="matrix(1, 0, 0, 1, 94, 224)"><g clip-path="url(#e7f516a346)"><g fill="#e52024" fill-opacity="1"><g transform="translate(1.63484, 8.50244)"><g><path d="M 1.9375 0 L 0.90625 0 L 0.90625 -6.5 L 8.140625 -6.5 L 8.140625 -5.46875 L 1.9375 -5.46875 L 1.9375 -3.765625 L 7.40625 -3.765625 L 7.40625 -2.734375 L 1.9375 -2.734375 Z M 1.9375 0 "/></g></g></g><g fill="#e52024" fill-opacity="1"><g transform="translate(12.316893, 8.50244)"><g><path d="M 1.9375 0 L 1.9375 -6.5 L 0.90625 -6.5 L 0.90625 0 Z M 1.9375 0 "/></g></g></g><g fill="#e52024" fill-opacity="1"><g transform="translate(17.030064, 8.50244)"><g><path d="M 8.65625 0 L 7.953125 0 L 1.9375 -4.90625 L 1.9375 0 L 0.90625 0 L 0.90625 -6.5 L 1.609375 -6.5 L 7.625 -1.609375 L 7.625 -6.5 L 8.65625 -6.5 Z M 8.65625 0 "/></g></g></g><g fill="#e52024" fill-opacity="1"><g transform="translate(28.455395, 8.50244)"><g><path d="M 6.578125 0 C 7.148438 0 7.640625 -0.195312 8.046875 -0.59375 C 8.453125 -1 8.65625 -1.488281 8.65625 -2.0625 L 8.65625 -4.4375 C 8.65625 -5 8.453125 -5.484375 8.046875 -5.890625 C 7.640625 -6.296875 7.148438 -6.5 6.578125 -6.5 L 0.90625 -6.5 L 0.90625 0 Z M 6.578125 -1.03125 L 1.9375 -1.03125 L 1.9375 -5.46875 L 6.578125 -5.46875 C 6.867188 -5.46875 7.113281 -5.363281 7.3125 -5.15625 C 7.519531 -4.957031 7.625 -4.71875 7.625 -4.4375 L 7.625 -2.0625 C 7.625 -1.78125 7.519531 -1.535156 7.3125 -1.328125 C 7.113281 -1.128906 6.867188 -1.03125 6.578125 -1.03125 Z M 6.578125 -1.03125 "/></g></g></g><g fill="#e52024" fill-opacity="1"><g transform="translate(39.654117, 8.50244)"><g/></g></g><g fill="#e52024" fill-opacity="1"><g transform="translate(43.823425, 8.50244)"><g><path d="M 5.125 0 L 4.09375 0 L 4.09375 -3.015625 L 0.140625 -6.5 L 1.6875 -6.5 L 4.609375 -3.9375 L 7.515625 -6.5 L 9.09375 -6.5 L 5.125 -3.015625 Z M 5.125 0 "/></g></g></g><g fill="#e52024" fill-opacity="1"><g transform="translate(54.913375, 8.50244)"><g><path d="M 6.359375 0 C 6.929688 0 7.414062 -0.195312 7.8125 -0.59375 C 8.21875 -1 8.421875 -1.488281 8.421875 -2.0625 L 8.421875 -4.4375 C 8.421875 -5 8.21875 -5.484375 7.8125 -5.890625 C 7.414062 -6.296875 6.929688 -6.5 6.359375 -6.5 L 2.75 -6.5 C 2.175781 -6.5 1.6875 -6.296875 1.28125 -5.890625 C 0.882812 -5.484375 0.6875 -5 0.6875 -4.4375 L 0.6875 -2.0625 C 0.6875 -1.488281 0.882812 -1 1.28125 -0.59375 C 1.6875 -0.195312 2.175781 0 2.75 0 Z M 6.359375 -1.03125 L 2.75 -1.03125 C 2.457031 -1.03125 2.210938 -1.128906 2.015625 -1.328125 C 1.816406 -1.535156 1.71875 -1.78125 1.71875 -2.0625 L 1.71875 -4.4375 C 1.71875 -4.71875 1.816406 -4.957031 2.015625 -5.15625 C 2.210938 -5.363281 2.457031 -5.46875 2.75 -5.46875 L 6.359375 -5.46875 C 6.640625 -5.46875 6.878906 -5.363281 7.078125 -5.15625 C 7.285156 -4.957031 7.390625 -4.71875 7.390625 -4.4375 L 7.390625 -2.0625 C 7.390625 -1.78125 7.285156 -1.535156 7.078125 -1.328125 C 6.878906 -1.128906 6.640625 -1.03125 6.359375 -1.03125 Z M 6.359375 -1.03125 "/></g></g></g><g fill="#e52024" fill-opacity="1"><g transform="translate(65.885488, 8.50244)"><g><path d="M 6.359375 0 C 6.929688 0 7.414062 -0.195312 7.8125 -0.59375 C 8.21875 -1 8.421875 -1.488281 8.421875 -2.0625 L 8.421875 -6.5 L 7.390625 -6.5 L 7.390625 -2.0625 C 7.390625 -1.78125 7.285156 -1.535156 7.078125 -1.328125 C 6.878906 -1.128906 6.640625 -1.03125 6.359375 -1.03125 L 2.75 -1.03125 C 2.457031 -1.03125 2.210938 -1.128906 2.015625 -1.328125 C 1.816406 -1.535156 1.71875 -1.78125 1.71875 -2.0625 L 1.71875 -6.5 L 0.6875 -6.5 L 0.6875 -2.0625 C 0.6875 -1.488281 0.882812 -1 1.28125 -0.59375 C 1.6875 -0.195312 2.175781 0 2.75 0 Z M 6.359375 0 "/></g></g></g><g fill="#e52024" fill-opacity="1"><g transform="translate(76.857601, 8.50244)"><g><path d="M 8.65625 0 L 7.625 0 L 7.625 -1.828125 C 7.625 -1.972656 7.570312 -2.09375 7.46875 -2.1875 C 7.363281 -2.289062 7.238281 -2.34375 7.09375 -2.34375 L 1.9375 -2.34375 L 1.9375 0 L 0.90625 0 L 0.90625 -6.5 L 7.09375 -6.5 C 7.519531 -6.5 7.882812 -6.347656 8.1875 -6.046875 C 8.5 -5.742188 8.65625 -5.378906 8.65625 -4.953125 L 8.65625 -3.890625 C 8.65625 -3.492188 8.519531 -3.148438 8.25 -2.859375 C 8.519531 -2.566406 8.65625 -2.222656 8.65625 -1.828125 Z M 7.09375 -3.375 C 7.238281 -3.375 7.363281 -3.425781 7.46875 -3.53125 C 7.570312 -3.632812 7.625 -3.753906 7.625 -3.890625 L 7.625 -4.953125 C 7.625 -5.097656 7.570312 -5.21875 7.46875 -5.3125 C 7.363281 -5.414062 7.238281 -5.46875 7.09375 -5.46875 L 1.9375 -5.46875 L 1.9375 -3.375 Z M 7.09375 -3.375 "/></g></g></g><g fill="#e52024" fill-opacity="1"><g transform="translate(88.056323, 8.50244)"><g/></g></g><g fill="#e52024" fill-opacity="1"><g transform="translate(92.225632, 8.50244)"><g><path d="M 6.578125 0 C 7.148438 0 7.640625 -0.195312 8.046875 -0.59375 C 8.453125 -1 8.65625 -1.488281 8.65625 -2.0625 L 8.65625 -4.4375 C 8.65625 -5 8.453125 -5.484375 8.046875 -5.890625 C 7.640625 -6.296875 7.148438 -6.5 6.578125 -6.5 L 0.90625 -6.5 L 0.90625 0 Z M 6.578125 -1.03125 L 1.9375 -1.03125 L 1.9375 -5.46875 L 6.578125 -5.46875 C 6.867188 -5.46875 7.113281 -5.363281 7.3125 -5.15625 C 7.519531 -4.957031 7.625 -4.71875 7.625 -4.4375 L 7.625 -2.0625 C 7.625 -1.78125 7.519531 -1.535156 7.3125 -1.328125 C 7.113281 -1.128906 6.867188 -1.03125 6.578125 -1.03125 Z M 6.578125 -1.03125 "/></g></g></g><g fill="#e52024" fill-opacity="1"><g transform="translate(103.424354, 8.50244)"><g><path d="M 8.65625 0 L 7.625 0 L 7.625 -1.828125 C 7.625 -1.972656 7.570312 -2.09375 7.46875 -2.1875 C 7.363281 -2.289062 7.238281 -2.34375 7.09375 -2.34375 L 1.9375 -2.34375 L 1.9375 0 L 0.90625 0 L 0.90625 -6.5 L 7.09375 -6.5 C 7.519531 -6.5 7.882812 -6.347656 8.1875 -6.046875 C 8.5 -5.742188 8.65625 -5.378906 8.65625 -4.953125 L 8.65625 -3.890625 C 8.65625 -3.492188 8.519531 -3.148438 8.25 -2.859375 C 8.519531 -2.566406 8.65625 -2.222656 8.65625 -1.828125 Z M 7.09375 -3.375 C 7.238281 -3.375 7.363281 -3.425781 7.46875 -3.53125 C 7.570312 -3.632812 7.625 -3.753906 7.625 -3.890625 L 7.625 -4.953125 C 7.625 -5.097656 7.570312 -5.21875 7.46875 -5.3125 C 7.363281 -5.414062 7.238281 -5.46875 7.09375 -5.46875 L 1.9375 -5.46875 L 1.9375 -3.375 Z M 7.09375 -3.375 "/></g></g></g><g fill="#e52024" fill-opacity="1"><g transform="translate(114.623076, 8.50244)"><g><path d="M 8.140625 0 L 0.90625 0 L 0.90625 -6.5 L 8.140625 -6.5 L 8.140625 -5.46875 L 1.9375 -5.46875 L 1.9375 -3.765625 L 7.40625 -3.765625 L 7.40625 -2.734375 L 1.9375 -2.734375 L 1.9375 -1.03125 L 8.140625 -1.03125 Z M 8.140625 0 "/></g></g></g><g fill="#e52024" fill-opacity="1"><g transform="translate(125.30513, 8.50244)"><g><path d="M 9.46875 0 L 8.21875 0 L 7.28125 -1.40625 L 2.34375 -1.40625 L 1.375 0 L 0.140625 0 L 4.53125 -6.5 L 5.078125 -6.5 Z M 6.578125 -2.4375 L 4.796875 -5.0625 L 3.03125 -2.4375 Z M 6.578125 -2.4375 "/></g></g></g><g fill="#e52024" fill-opacity="1"><g transform="translate(136.784847, 8.50244)"><g><path d="M 9.84375 0 L 8.8125 0 L 8.8125 -4.390625 L 5.640625 0 L 5.109375 0 L 1.9375 -4.390625 L 1.9375 0 L 0.90625 0 L 0.90625 -6.5 L 1.6875 -6.5 L 5.375 -1.390625 L 9.0625 -6.5 L 9.84375 -6.5 Z M 9.84375 0 "/></g></g></g><g fill="#e52024" fill-opacity="1"><g transform="translate(149.406674, 8.50244)"><g/></g></g><g fill="#e52024" fill-opacity="1"><g transform="translate(153.575983, 8.50244)"><g><path d="M 6.359375 0 C 6.929688 0 7.414062 -0.195312 7.8125 -0.59375 C 8.21875 -1 8.421875 -1.488281 8.421875 -2.0625 L 7.390625 -2.0625 C 7.390625 -1.78125 7.285156 -1.535156 7.078125 -1.328125 C 6.878906 -1.128906 6.640625 -1.03125 6.359375 -1.03125 L 2.75 -1.03125 C 2.457031 -1.03125 2.210938 -1.128906 2.015625 -1.328125 C 1.816406 -1.535156 1.71875 -1.78125 1.71875 -2.0625 L 1.71875 -4.4375 C 1.71875 -4.71875 1.816406 -4.957031 2.015625 -5.15625 C 2.210938 -5.363281 2.457031 -5.46875 2.75 -5.46875 L 6.359375 -5.46875 C 6.640625 -5.46875 6.878906 -5.363281 7.078125 -5.15625 C 7.285156 -4.957031 7.390625 -4.71875 7.390625 -4.4375 L 8.421875 -4.4375 C 8.421875 -5 8.21875 -5.484375 7.8125 -5.890625 C 7.414062 -6.296875 6.929688 -6.5 6.359375 -6.5 L 2.75 -6.5 C 2.175781 -6.5 1.6875 -6.296875 1.28125 -5.890625 C 0.882812 -5.484375 0.6875 -5 0.6875 -4.4375 L 0.6875 -2.0625 C 0.6875 -1.488281 0.882812 -1 1.28125 -0.59375 C 1.6875 -0.195312 2.175781 0 2.75 0 Z M 6.359375 0 "/></g></g></g><g fill="#e52024" fill-opacity="1"><g transform="translate(164.548096, 8.50244)"><g><path d="M 9.46875 0 L 8.21875 0 L 7.28125 -1.40625 L 2.34375 -1.40625 L 1.375 0 L 0.140625 0 L 4.53125 -6.5 L 5.078125 -6.5 Z M 6.578125 -2.4375 L 4.796875 -5.0625 L 3.03125 -2.4375 Z M 6.578125 -2.4375 "/></g></g></g><g fill="#e52024" fill-opacity="1"><g transform="translate(176.027813, 8.50244)"><g><path d="M 8.65625 0 L 7.625 0 L 7.625 -1.828125 C 7.625 -1.972656 7.570312 -2.09375 7.46875 -2.1875 C 7.363281 -2.289062 7.238281 -2.34375 7.09375 -2.34375 L 1.9375 -2.34375 L 1.9375 0 L 0.90625 0 L 0.90625 -6.5 L 7.09375 -6.5 C 7.519531 -6.5 7.882812 -6.347656 8.1875 -6.046875 C 8.5 -5.742188 8.65625 -5.378906 8.65625 -4.953125 L 8.65625 -3.890625 C 8.65625 -3.492188 8.519531 -3.148438 8.25 -2.859375 C 8.519531 -2.566406 8.65625 -2.222656 8.65625 -1.828125 Z M 7.09375 -3.375 C 7.238281 -3.375 7.363281 -3.425781 7.46875 -3.53125 C 7.570312 -3.632812 7.625 -3.753906 7.625 -3.890625 L 7.625 -4.953125 C 7.625 -5.097656 7.570312 -5.21875 7.46875 -5.3125 C 7.363281 -5.414062 7.238281 -5.46875 7.09375 -5.46875 L 1.9375 -5.46875 L 1.9375 -3.375 Z M 7.09375 -3.375 "/></g></g></g></g></g><g clip-path="url(#e35ca58c4c)"><path fill="#f5f6f5" d="M 133.917969 221.410156 L 133.917969 222.464844 L 113.476562 222.464844 L 120.027344 215.914062 C 120.15625 216.023438 120.296875 216.113281 120.449219 216.1875 C 120.601562 216.257812 120.757812 216.3125 120.921875 216.34375 C 121.085938 216.375 121.253906 216.386719 121.421875 216.375 C 121.589844 216.363281 121.753906 216.332031 121.914062 216.28125 C 122.070312 216.230469 122.222656 216.15625 122.363281 216.066406 C 122.503906 215.976562 122.632812 215.867188 122.746094 215.742188 C 122.859375 215.621094 122.957031 215.484375 123.035156 215.335938 C 123.113281 215.1875 123.171875 215.03125 123.210938 214.867188 C 123.25 214.703125 123.269531 214.539062 123.265625 214.371094 C 123.261719 214.203125 123.234375 214.039062 123.191406 213.875 C 123.144531 213.714844 123.078125 213.5625 122.996094 213.417969 C 122.910156 213.273438 122.808594 213.140625 122.6875 213.023438 C 122.570312 212.902344 122.4375 212.800781 122.292969 212.714844 C 122.148438 212.632812 121.996094 212.566406 121.832031 212.519531 C 121.671875 212.472656 121.507812 212.449219 121.339844 212.445312 C 121.171875 212.441406 121.003906 212.460938 120.84375 212.5 C 120.679688 212.539062 120.523438 212.597656 120.375 212.675781 C 120.226562 212.753906 120.089844 212.851562 119.964844 212.964844 C 119.84375 213.078125 119.734375 213.207031 119.644531 213.347656 C 119.554688 213.488281 119.480469 213.636719 119.429688 213.796875 C 119.375 213.957031 119.34375 214.121094 119.335938 214.289062 C 119.324219 214.457031 119.335938 214.621094 119.367188 214.789062 C 119.398438 214.953125 119.449219 215.109375 119.523438 215.261719 C 119.597656 215.414062 119.6875 215.554688 119.792969 215.683594 L 106.761719 228.714844 L 71.769531 228.714844 L 71.769531 229.046875 L 106.898438 229.046875 L 113.148438 222.796875 L 118.472656 222.796875 L 120.921875 225.238281 L 126.242188 225.238281 L 128.6875 222.796875 L 133.921875 222.796875 L 133.921875 223.84375 L 136.363281 223.84375 L 136.363281 221.40625 Z M 136.027344 223.519531 L 134.246094 223.519531 L 134.246094 221.738281 L 136.027344 221.738281 Z M 136.027344 223.519531 " fill-opacity="1" fill-rule="nonzero"/></g><g clip-path="url(#01e3a3352c)"><path fill="#f5f6f5" d="M 348.195312 221.410156 L 348.195312 222.464844 L 327.753906 222.464844 L 334.304688 215.914062 C 334.433594 216.023438 334.574219 216.113281 334.722656 216.1875 C 334.875 216.257812 335.035156 216.3125 335.199219 216.34375 C 335.363281 216.375 335.53125 216.386719 335.699219 216.375 C 335.867188 216.363281 336.027344 216.332031 336.1875 216.28125 C 336.347656 216.230469 336.5 216.15625 336.640625 216.066406 C 336.78125 215.976562 336.910156 215.867188 337.023438 215.742188 C 337.136719 215.621094 337.230469 215.484375 337.3125 215.335938 C 337.390625 215.1875 337.449219 215.03125 337.488281 214.867188 C 337.527344 214.703125 337.542969 214.539062 337.539062 214.371094 C 337.535156 214.203125 337.511719 214.039062 337.464844 213.875 C 337.421875 213.714844 337.355469 213.5625 337.269531 213.417969 C 337.1875 213.273438 337.082031 213.140625 336.964844 213.023438 C 336.847656 212.902344 336.714844 212.800781 336.570312 212.714844 C 336.425781 212.632812 336.269531 212.566406 336.109375 212.519531 C 335.949219 212.472656 335.785156 212.449219 335.617188 212.445312 C 335.449219 212.441406 335.28125 212.460938 335.117188 212.5 C 334.953125 212.539062 334.800781 212.597656 334.652344 212.675781 C 334.503906 212.753906 334.367188 212.851562 334.242188 212.964844 C 334.117188 213.078125 334.011719 213.207031 333.921875 213.347656 C 333.828125 213.488281 333.757812 213.636719 333.707031 213.796875 C 333.652344 213.957031 333.621094 214.121094 333.609375 214.289062 C 333.601562 214.457031 333.609375 214.621094 333.644531 214.789062 C 333.675781 214.953125 333.726562 215.109375 333.800781 215.261719 C 333.871094 215.414062 333.960938 215.554688 334.070312 215.683594 L 321.039062 228.714844 L 286.046875 228.714844 L 286.046875 229.046875 L 321.175781 229.046875 L 327.425781 222.796875 L 332.75 222.796875 L 335.199219 225.238281 L 340.519531 225.238281 L 342.960938 222.796875 L 348.199219 222.796875 L 348.199219 223.84375 L 350.636719 223.84375 L 350.636719 221.40625 Z M 350.304688 223.519531 L 348.523438 223.519531 L 348.523438 221.738281 L 350.304688 221.738281 Z M 350.304688 223.519531 " fill-opacity="1" fill-rule="nonzero"/></g></svg>